<?xml version="1.0" encoding="UTF-8"?>
<svg id="Layer_2" data-name="Layer 2" xmlns="http://www.w3.org/2000/svg" viewBox="0 0 107.9 27.5">
  <defs>
    <style>
      .cls-1 {
        fill: none;
      }

      .cls-2 {
        fill: #d42027;
        stroke: #000;
        stroke-miterlimit: 10;
        stroke-width: .14px;
      }
    </style>
  </defs>
  <g id="Layer_1-2" data-name="Layer 1">
    <g>
      <rect class="cls-1" y="2.32" width="107.9" height="24.76"/>
      <path class="cls-2" d="M.62,24.63l1.4-4.62c1.59,1.21,3.76,2.52,6.15,2.52,1.21,0,2.17-.25,2.17-1.21,0-.89-.8-1.05-3.09-1.59-4.74-1.05-6.15-3.44-6.15-6.37,0-3.85,2.99-6.08,7.45-6.08,2.68,0,5.1.89,6.78,2.01l-1.27,4.3c-1.53-.86-3.63-1.62-5.6-1.62-.89,0-1.46.32-1.46.86,0,.64.41.83,2.17,1.24,5.1,1.15,7.07,3.12,7.07,6.69,0,4.87-3.89,6.46-8.06,6.46-3.38,0-5.86-1.27-7.55-2.58Z"/>
      <path class="cls-2" d="M17.91,7.72h6.27l2.39,7.8c.19.64.6,2.83.64,2.99.03-.13.54-2.29.73-2.99l2.1-7.8h5.1l2.1,7.8.73,2.99c0-.13.45-2.32.64-2.99l2.39-7.8h6.15l-6.43,19.11h-5.25l-2.39-8.12c-.22-.7-.51-2.07-.54-2.29-.03.16-.35,1.59-.54,2.29l-2.39,8.12h-5.25l-6.43-19.11Z"/>
      <path class="cls-2" d="M54.16,7.72h5.73l7.93,19.11h-6.4l-1.02-2.8h-6.88l-1.02,2.8h-6.27l7.93-19.11ZM58.96,20.05l-2.01-5.73-2.01,5.73h4.01Z"/>
      <path class="cls-2" d="M69.16,17.28c0-6.18,5.1-9.97,10.8-9.97,2.74,0,5.51.64,7.1,1.85v5.25c-1.66-1.21-3.41-2.1-6.15-2.1-3.12,0-5.22,1.75-5.22,5.45,0,3.47,1.91,5.16,4.59,5.16.67,0,.99-.1,1.46-.22v-2.36h-2.33v-4.04h8.44v9.39c-1.15.51-4.46,1.69-8.53,1.69-5.51,0-10.16-3.92-10.16-10.09Z"/>
      <path class="cls-2" d="M107.38,9.26c0,.51-.34.84-1.01,1h.03c-.08.02-.24.04-.47.06-.23.02-.5.04-.8.07s-.63.05-.96.07c-.34.02-.66.04-.96.06-.31.02-.58.04-.82.05-.24.02-.41.03-.51.04-.12,0-.23.02-.33.05.45.54.85,1.02,1.22,1.45.37.43.69.81.96,1.15s.48.63.63.88.23.46.23.62c0,.2-.04.39-.12.57-.08.18-.19.34-.33.47s-.29.24-.47.32c-.18.08-.36.12-.56.12-.17,0-.34-.05-.52-.15-.18-.1-.35-.22-.51-.35-.16-.13-.3-.27-.42-.42-.12-.15-.2-.26-.24-.34-.1-.11-.28-.32-.54-.61s-.52-.63-.8-1.03c-.21-.3-.38-.55-.51-.74-.13-.19-.31-.39-.54-.6-.02.03-.04.06-.06.09s-.04.05-.06.09c-.02.05-.1.21-.23.48-.13.27-.29.58-.47.94-.19.36-.39.73-.6,1.12-.21.39-.41.73-.6,1.03-.51.82-.99,1.23-1.45,1.23-.13,0-.26-.02-.37-.07-.11-.05-.22-.11-.33-.18-.3-.22-.54-.42-.73-.61-.19-.19-.28-.45-.28-.77,0-.06.08-.24.26-.53.17-.29.39-.63.65-1.03.26-.39.54-.81.86-1.24.31-.43.61-.82.89-1.16-.3,0-.57.01-.82.04-.24.03-.47.06-.69.1s-.43.09-.65.15c-.21.06-.44.12-.68.18-.3.08-.53.14-.68.18-.16.04-.32.05-.48.05s-.31-.05-.42-.16-.21-.22-.29-.36c-.08-.13-.13-.27-.17-.4-.04-.13-.05-.23-.05-.3,0-.08.02-.17.06-.27.04-.1.09-.2.16-.3.06-.1.13-.19.2-.26.07-.08.14-.14.2-.18.08-.06.24-.13.46-.2.22-.07.47-.15.73-.22.26-.07.52-.13.77-.18.25-.05.45-.07.59-.07.5,0,.93,0,1.3-.02.37-.02.68-.04.94-.09-.04-.06-.12-.16-.23-.3-.11-.13-.23-.27-.34-.4-.11-.13-.21-.24-.3-.34s-.12-.14-.11-.13c-.79-1.04-1.18-1.78-1.18-2.24,0-.1.03-.22.1-.34.07-.12.15-.24.26-.34s.22-.19.35-.26c.13-.07.26-.11.38-.11.74,0,1.8.93,3.19,2.78.04-.04.17-.19.38-.44.21-.25.45-.53.7-.83s.5-.6.73-.89c.23-.28.4-.48.49-.6.09-.11.18-.23.27-.35s.19-.23.31-.33c.12-.1.25-.19.4-.25.15-.06.32-.09.52-.09s.39.03.57.08.34.13.49.23c.14.1.26.23.35.37.09.14.13.3.13.49,0,.15-.03.27-.1.39-.07.11-.15.22-.25.32s-.21.2-.32.3c-.11.1-.21.2-.3.32-.22.39-.42.73-.62,1.01s-.37.5-.51.65c-.05.06-.12.13-.19.21-.08.08-.17.16-.29.26.32-.06.67-.11,1.06-.13.38-.03.77-.1,1.15-.21.42-.08.8-.14,1.11-.18.32-.04.61-.05.89-.05.48,0,.81.22,1.01.67.2.37.3.67.3.9Z"/>
    </g>
  </g>
</svg>
